<svg t="1745046261785" class="icon" viewBox="0 0 1024 1024" version="1.1" xmlns="http://www.w3.org/2000/svg" p-id="1446" width="200" height="200"><path d="M244.408525 51.16802C339.752455 11.43989 443.962523 14.072485 498.968145 13.432884c120.244847-1.400725 220.022486 20.465929 262.236102 35.178014s83.787633 973.474139 83.787633 973.474139H176.609619C170.469457 989.337504 207.312989 66.6246 244.407245 51.16802z" fill="#A6DFF0" p-id="1447"></path><path d="M239.931323 276.307308c-5.756402 64.599625 6.438216 146.468457 23.707423 146.468457 136.599425 2.484207 369.273204 24.967435 482.258588 0 42.196987-9.324092 33.34364-121.524047 22.983396-164.377264-19.019153-78.670831-81.147363-202.113679-262.834769-202.113679-181.687405 0-256.881369 116.407245-266.114638 220.022486z" fill="#000000" p-id="1448"></path><path d="M736.834199 408.140432c23.716377-3.270916 70.643848 2.22453 68.620152 50.378754-2.530259 60.1915-73.864874 89.923958-96.694766 86.856434l28.074614-137.235188z m-462.355508 1.279201c-23.716377-3.270916-70.643848 2.22453-68.620153 50.378753 2.530259 60.1915 73.864874 89.923958 96.694766 86.856435l-28.074613-137.235188z" fill="#FFD7C9" p-id="1449"></path><path d="M448.421816 735.540287c18.01626-25.571218 19.700967-57.384934 17.522489-67.797626h94.439535c-4.649894 27.314768 2.621082 43.097544 17.876827 67.797626-49.398886 39.229242-86.251373 34.869726-129.838851 0z" fill="#FFD7C9" p-id="1450"></path><path d="M512.401029 672.40023c-223.092567-4.093442-251.364177-153.502781-251.362898-257.118021 0-138.794533 40.999655-280.173052 266.712025-274.38467 198.915678 5.101452 221.302966 179.71232 221.302966 274.38467 0 108.092442-24.945689 261.002953-236.652093 257.118021z" fill="#FDE5DD" p-id="1451"></path><path d="M330.754558 578.838226c27.905759 0 50.52842-22.622661 50.52842-50.52842s-22.622661-50.52842-50.52842-50.528419-50.52842 22.622661-50.528419 50.528419 22.622661 50.52842 50.528419 50.52842z m350.500937 0c27.905759 0 50.52842-22.622661 50.52842-50.52842s-22.622661-50.52842-50.52842-50.528419-50.52842 22.622661-50.528419 50.528419 22.622661 50.52842 50.528419 50.52842z" fill="#FFD9D3" p-id="1452"></path><path d="M558.433059 423.442229c56.747893-35.592475 107.275033-36.232075 162.457185-0.376085-38.946538-12.276487-103.790491-30.099588-162.457185 0.376085z m-119.143455 0.388877c-56.746613-35.592475-107.275033-36.232075-162.457184-0.376085 38.946538-12.276487 103.79177-30.099588 162.457184 0.376085z" fill="#000000" p-id="1453"></path><path d="M574.423066 557.732697c-19.115093 72.913149-125.288735 51.166741-130.478451 0 11.964362 1.245941 24.677057-1.417354 62.349511-1.881704 32.290858-0.397831 44.8961 0.322359 68.12894 1.881704z" fill="#A24435" p-id="1454"></path><path d="M468.322339 592.909432c14.071205-30.700812 63.320425-37.096814 83.148032 0-28.142411 18.548407-62.680824 10.873204-83.148032 0z" fill="#F36650" p-id="1455"></path><path d="M512.409984 570.954513c-52.247665 0.103615-53.762239-7.572867-60.150566-11.943895l113.209244-1.2792c-3.785154 4.391495-10.639111 13.137389-53.058678 13.223095z" fill="#FFFFFF" p-id="1456"></path><path d="M517.560045 523.832605c0 2.825754-4.294276 5.116802-9.594004 5.116802-5.298448 0-9.594004-2.291048-9.594004-5.116802s4.295555-5.116802 9.594004-5.116802c5.299728 0 9.594004 2.291048 9.594004 5.116802z" fill="#FFB2B2" p-id="1457"></path><path d="M516.099198 746.345694c1.912405-2.749002 7.137939-7.020252 13.34334-12.091003 13.844787-11.314528 32.563328-26.613766 30.217275-37.874569 3.638046-2.415131 5.505679 4.321139 8.020587 13.39195 1.985319 7.159685 4.374866 15.775101 8.355737 22.490904 16.04757 9.586329 98.302721 67.948572 117.355133 117.022541 14.857914 38.267283 26.22361 116.874154 30.061212 171.879775h-417.019363c-0.202114-36.238471 12.398011-121.348797 26.002309-171.879775 13.604297-50.532257 81.236907-99.20072 115.349347-117.219538l0.046051 0.039655c3.925866-6.692777 6.292387-15.228882 8.262356-22.333562 2.514908-9.070811 4.382541-15.807081 8.021866-13.39195-2.346054 11.260802 16.372487 26.56004 30.217274 37.874569 6.204122 5.070751 11.430936 9.342001 13.342062 12.091003 1.946943 2.797611 3.085432 6.723478 3.677701 11.072759 0.358176 0 0.715073-0.001279 1.070691-0.005116 0.59227-4.346723 1.732037-8.27131 3.676422-11.067643z" fill="#8AE4FF" p-id="1458"></path><path d="M702.636052 471.15129C699.495615 453.266788 679.82407 427.252967 649.572257 427.252967c-46.120295 0-79.346249 40.214226-63.479045 82.376674 18.356527 48.775915 128.940852 35.769004 116.54284-38.478351z m-394.579627 0.639601c3.141716-17.884502 22.811983-43.898324 53.063795-43.898324 46.120295 0 79.346249 40.214226 63.479045 82.376675-18.356527 48.775915-128.940852 35.769004-116.54284-38.478351z" fill="#FF6565" p-id="1459"></path><path d="M697.341442 465.634099C690.39922 449.907608 672.445641 432.369769 647.013856 432.369769c-46.120295 0-79.346249 38.365781-63.479045 78.588962 17.956137 45.516512 124.152804 34.638191 117.181162-32.150146 8.450399 8.39923 16.606581 6.439495 20.206251 3.782596-11.089389 3.118691-18.681444-9.084882-22.991071-16.010474l-0.589711-0.946608z m-382.807146-1.847166c7.66369-15.030606 25.046746-30.777564 49.144325-30.777564 46.120295 0 79.346249 38.365781 63.479045 78.588962-17.998351 45.626523-124.663205 34.585744-117.128714-32.632405-7.778818 7.380987-15.415645 5.738493-18.932167 3.323363 11.189167 2.741327 18.364202-9.71169 22.435897-16.779273l0.001279-0.001279c0.356897-0.619133 0.690768-1.198611 1.000335-1.721804z" fill="#000000" p-id="1460"></path><path d="M696.895001 480.650633c-3.058568-15.761029-22.209479-38.686861-51.663071-38.68686-44.902496 0-82.426563 30.54475-61.802014 72.598466 21.554528 43.950771 125.53562 31.523338 113.465085-33.911606z m-383.096245 0.639601c3.057289-15.761029 22.209479-38.686861 51.661791-38.686861 44.902496 0 82.426563 30.54475 61.803293 72.598466-21.555808 43.950771-125.53562 31.523338-113.465084-33.911605z" fill="#FFFFFF" p-id="1461"></path><path d="M630.068287 527.670206c-23.313429 0-42.213616-19.186728-42.213616-42.853217 0-23.666488 18.900187-42.853217 42.213616-42.853216s42.213616 19.186728 42.213617 42.853216c0 23.666488-18.900187 42.853217-42.213617 42.853217z m-249.444097 0.6396c23.314708 0 42.213616-19.186728 42.213616-42.853216 0-23.666488-18.898908-42.853217-42.213616-42.853217-23.313429 0-42.213616 19.186728-42.213617 42.853217 0 23.666488 18.900187 42.853217 42.213617 42.853216z" fill="#000000" p-id="1462"></path><path d="M260.585294 409.34416c65.106189-10.873204 203.259843-35.817614 241.635858-152.86446 30.061212 113.848844 176.955643 130.872445 248.937534 151.585259 12.138334-102.733871-26.22361-308.981926-255.2005-306.994048-228.976889 1.989157-253.048884 207.197222-235.372892 308.273249z" fill="#000000" p-id="1463"></path><path d="M513.68023 759.845097c-14.710806 0-39.655215 0-66.518426-29.421612-5.756402 2.558401-55.005621 38.376015-63.960025 46.690819V894.161149c0 51.476307-0.498888 126.001249-0.498888 126.00125h267.851792s-2.109402-76.074054-5.116802-126.00125c-4.122863-68.437227-8.314803-117.046846-8.314803-117.046845l-59.482823-46.690819c-19.188007 22.386009-46.690818 29.421611-63.960025 29.421612z" fill="#5DBBD6" p-id="1464"></path><path d="M781.672735 413.181761c-189.321674-125.451193-434.28857-81.958376-550.695816 0-20.467208 14.410194-6.396002-351.961784 19.827608-362.563797 120.244847-48.609619 382.480949-45.411618 505.284198 0 23.970938 8.864859 45.411618 375.702466 25.58401 362.563797z" fill="#D7F6FF" p-id="1465"></path><path d="M248.461032 84.846811c82.487965-25.170828 289.723563-61.171368 510.109342-0.601224a5.116802 5.116802 0 1 0 2.711905-9.869032c-222.729274-61.212302-432.001359-24.890683-515.80818 0.681814a5.116802 5.116802 0 1 0 2.986933 9.787163z m-17.038951 310.092272C273.21612 364.637382 386.621082 314.683323 513.04063 314.683323c135.541527 0 228.778613 51.938099 266.374316 77.771553a5.116802 5.116802 0 0 0 5.796057-8.435048C746.48065 357.40734 651.249289 304.449719 513.04063 304.449719c-128.645357 0-244.139253 50.676807-287.625674 82.203982a5.116802 5.116802 0 1 0 6.007125 8.285382z" fill="#53B4D1" p-id="1466"></path><path d="M508.376665 56.284822c19.125327 14.778603 26.040685 34.57551 20.220322 56.385879-0.594828 2.225809-1.211403 4.445222-1.838211 6.663355-0.290379 1.02336-0.582036 2.049279-0.874973 3.07264l-0.726586 2.530258c-1.45573 5.07203-2.91146 10.145339-4.220083 15.254466-1.070691 4.199615-2.677367 6.575091-7.520419 5.556847a18.064869 18.064869 0 0 0-7.507628 0c-5.634878 1.298389-7.787773-1.075808-8.999176-6.39984-1.474918-6.494501-3.339993-12.89562-5.207625-19.305694l-0.003838-0.012792a953.100312 953.100312 0 0 1-1.888099-6.540552c-5.751285-20.733282-0.826364-38.365781 15.132941-52.874473A37.167171 37.167171 0 0 0 508.376665 56.284822z m28.949586 101.655505l-17.099073-12.121704c1.836932-4.455455 3.572807-9.02476 5.321474-13.627323l0.002558-0.008954c3.788992-9.973926 7.638106-20.109032 12.719091-29.585349 8.030821-14.978159 23.035843-20.547798 39.286806-22.301582 1.326531-0.140712 3.923308 1.74355 4.179148 3.041939 4.120305 20.744795 0.244327 39.05655-16.949407 52.910291-6.301342 5.08738-12.675598 10.085217-18.965426 15.017814l-0.200835 0.157342a3660.561429 3660.561429 0 0 0-8.294336 6.517526z m-67.378049-8.166416c3.571528 2.889714 7.128984 5.769194 10.595618 8.70496 1.655285-1.19989 3.171138-2.35245 4.60896-3.444887 3.08799-2.348612 5.810129-4.418359 8.766361-6.08004 3.154508-1.778089 3.398836-3.497334 2.234763-6.516248-0.652392-1.7282-1.291993-3.460237-1.923918-5.194833a1215.940197 1215.940197 0 0 1-2.695275-7.492277c-2.07998-5.816525-4.158681-11.63177-6.427983-17.371543-7.997562-20.231835-23.84046-29.755483-44.630026-31.932682-1.373861-0.140712-4.051228 1.778089-4.307068 3.100782-3.213352 16.486336-2.444552 32.785909 9.847285 45.282419 7.42448 7.58438 15.713699 14.293786 23.931283 20.944349z m-77.152419-7.933601c18.869487-13.303685 40.370289-13.771873 58.87904-1.414796 1.514573 1.010568 3.02403 2.027533 4.532208 3.048335l2.435597 1.651448 1.807511 1.226753c5.251118 3.568969 10.503515 7.139218 15.868482 10.582826 3.084152 1.977644 4.469527 3.638046 2.234763 7.372032a23.481004 23.481004 0 0 0-3.085431 9.35991c-0.429811 4.17659-1.780647 5.48777-6.133767 5.194833-5.322753-0.36841-10.645507-0.486096-15.954188-0.603782h-0.020468c-5.133432-0.113849-10.25535-0.226418-15.350406-0.565407-21.512315-1.509457-38.1125-14.744065-45.213341-35.852152z m48.507283 39.900822c-23.19958 0.550056-40.486696 13.256355-48.507283 36.014611 19.952969 13.690004 39.845816 14.040505 59.415025 1.005451 3.389881-2.238601 6.747783-4.532207 10.106963-6.825814l0.012792-0.008954 0.014072-0.007675c4.633264-3.164742 9.266528-6.328205 13.985499-9.350956 3.4564-2.22325 4.259738-4.188102 2.013461-7.955348a23.68056 23.68056 0 0 1-2.933206-9.361189c-0.408065-3.943775-2.211738-4.855845-5.703956-4.680595-9.463525 0.502726-18.92833 0.936375-28.403367 1.170469z m48.914068 62.797232c-7.194224 23.811038 0.360735 42.684362 19.463036 58.632154l1.396887-1.492827 0.043493-0.046051a484.136455 484.136455 0 0 1 5.23065-5.540217c13.71175-14.556022 17.890898-31.369834 12.070536-50.652502-2.351171-7.815915-4.539883-15.690673-6.717081-23.553919l-0.028143-0.102336c-1.142326-4.124142-1.707733-6.165746-3.043218-7.121309-1.309901-0.938933-3.36046-0.83276-7.419363-0.621692l-0.148387 0.006396c-2.333262 0.203393-4.684432 0.076752-6.984435-0.374806-4.01541-0.936375-5.505679 0.913349-6.448449 4.48104-2.328145 8.835438-4.772697 17.645292-7.415526 26.386069z m-5.660462-40.6095c-1.165352-0.80078-2.358846-1.620747-3.583041-2.472694-2.247555 1.765297-4.523253 3.562573-6.823255 5.380317-6.073644 4.797002-12.313584 9.727041-18.645626 14.522763-18.206861 13.865254-23.630671 32.317721-19.266039 54.185654 0.291658 1.486431 2.980537 3.650838 4.365911 3.510127 18.659698-1.812627 34.013941-9.700177 42.301881-27.250809 4.206011-8.898119 7.406571-18.284892 10.602014-27.660152a876.78321 876.78321 0 0 1 2.855176-8.284102 5.3445 5.3445 0 0 0-1.629702-4.587213c-3.173696-2.534096-6.541831-4.846891-10.177319-7.343891z m80.97595 14.470317c19.509087 13.010748 39.962224 12.730603 59.949732-1.16919-8.300732-19.037062-20.569544-32.903595-42.081859-35.102541-5.77559-0.601224-11.592115-0.756007-17.411198-0.909511-4.818748-0.126641-9.638776-0.254561-14.437057-0.635763-5.961074-0.4797-8.987663 1.240824-9.31258 7.53577a13.278101 13.278101 0 0 1-2.328145 6.504735c-2.805287 4.061462-0.955563 6.085157 2.456065 8.273869 5.157736 3.283708 10.24 6.741387 15.319705 10.196507a1188.972092 1188.972092 0 0 0 7.845337 5.306124z m60.077652-77.051363c-8.951845 22.137844-23.735565 35.606546-48.06468 36.273009l-2.700392 0.075473c-8.57576 0.241769-17.148962 0.483538-25.714489 0.906953-3.677701 0.188042-5.925257-0.630646-6.238661-4.808515a23.909537 23.909537 0 0 0-1.71157-6.154233l-0.026863-0.072915c-3.034264-8.199675-3.035543-8.203513 4.438826-13.255075a346.931968 346.931968 0 0 1 2.142661-1.433984 884.759026 884.759026 0 0 1 3.434653-2.269302c4.126701-2.71958 8.250843-5.436602 12.221481-8.371088 20.312425-15.001184 40.811613-13.889559 62.219034-0.890323z m-100.554114 68.881109c-1.34444 1.029756-2.740047 2.097889-4.212407 3.209514a836.57538 836.57538 0 0 1 4.277646 11.922149c2.746443 7.77626 5.517192 15.622876 8.713914 23.285286 8.020587 19.107418 23.514264 28.139853 43.395598 30.281235 1.467243 0.152225 4.307068-1.450613 4.552674-2.621082 3.480705-17.386893 2.351171-34.259548-10.89623-47.317627-7.306793-7.195503-15.501352-13.491728-23.685676-19.778998a757.657664 757.657664 0 0 1-8.186883-6.348672c-0.826364-0.690768-3.259403-0.468187-4.318581 0.257119-3.190326 2.169524-6.25657 4.518136-9.640055 7.111076z" fill="#7AD9F4" p-id="1467"></path><path d="M536.066239 179.72767c0 15.189227-12.313584 27.502811-27.502811 27.502811s-27.502811-12.313584-27.502811-27.502811 12.313584-27.502811 27.502811-27.502811 27.502811 12.313584 27.502811 27.502811z" fill="#7AD9F4" p-id="1468"></path><path d="M498.969424 11.668867c66.306079-0.6396 173.1206-1.267688 271.830106 40.934416 24.304809 10.390946 72.914428 517.92014 72.914429 968.198716-3.933542-233.35943-43.196042-772.115188-337.079565-1003.219388C212.374786 248.450159 184.865579 789.842349 177.250498 1024c0-468.187383 40.294816-960.522234 64.599626-970.913179 91.927186-39.302156 190.882299-41.458888 257.601559-41.052103l-0.482259-0.365851z" fill="#BAEDFB" p-id="1469"></path><path d="M509.841349 760.484697c-7.675203 1.02336-21.532782-2.344775-27.502811-4.477202v264.154904h27.502811v-259.677702zM383.841379 776.474703l-11.512804 10.233604 10.873204 135.595253 0.6396-145.828857z m253.281699 0l10.233604 10.233604v131.118052l-10.233604-141.351656zM540.542161 756.007495c-5.970029 2.132427-19.827608 6.140162-27.502811 5.116802v259.677702h27.502811V756.007495z" fill="#44FDFC" p-id="1470"></path></svg>